# xmcd
#
# Track frame offsets:
#       150
#       10270
#       27417
#       44632
#       53997
#       76112
#       110437
#       115757
#       122300
#       141755
#       152757
#       163602
#       181180
#       205262
#       228172
#       247167
#       270242
#       282060
#       299397
#       323475
#
# Disc length: 4616 seconds
#
# Revision: 1
# Processed by: cddbd v1.5.1PL0 Copyright (c) Steve Scherf et al.
# Submitted via: MusiCat 1.1
#
DISCID=0a120614
DTITLE=Jimmy and Mama Yancey - The Unissued 1951 Yancey Recordings
DYEAR=1951
DGENRE=
TTITLE0=Lux's Boogie
TTITLE1=Make Me A Pallet On The Floor
TTITLE2=Chicago In Mind
TTITLE3=Cow Cow Blues
TTITLE4=Tomorrow Morning
TTITLE5=Four O'Clock Blues
TTITLE6=Shave 'Em Dry
TTITLE7=Elephant Rag
TTITLE8=Mellow Blues
TTITLE9=Scott Joplin's New Rag
TTITLE10=Royal Garden Blues
TTITLE11=Hurry Sundown
TTITLE12=Don't You Wanna Know
TTITLE13=How Long Blues
TTITLE14=Yancey's Bugle Call
TTITLE15=Fives
TTITLE16=Blues
TTITLE17=Chicago In Mind
TTITLE18=Don't You Wanna Know
TTITLE19=How Long Blues
EXTD=Document\nDOCD 1007\n
EXTT0=
EXTT1=
EXTT2=
EXTT3=
EXTT4=
EXTT5=
EXTT6=
EXTT7=
EXTT8=
EXTT9=
EXTT10=
EXTT11=
EXTT12=
EXTT13=
EXTT14=
EXTT15=
EXTT16=
EXTT17=
EXTT18=
EXTT19=
PLAYORDER=
